<?xml version="1.0" encoding="UTF-8" standalone="no"?>
<!-- Created with Inkscape (http://www.inkscape.org/) -->

<svg
   xmlns:dc="http://purl.org/dc/elements/1.1/"
   xmlns:cc="http://creativecommons.org/ns#"
   xmlns:rdf="http://www.w3.org/1999/02/22-rdf-syntax-ns#"
   xmlns:svg="http://www.w3.org/2000/svg"
   xmlns="http://www.w3.org/2000/svg"
   xmlns:sodipodi="http://sodipodi.sourceforge.net/DTD/sodipodi-0.dtd"
   xmlns:inkscape="http://www.inkscape.org/namespaces/inkscape"
   width="626.07245mm"
   height="97.617844mm"
   viewBox="0 0 626.07245 97.617844"
   version="1.1"
   id="svg8"
   inkscape:version="0.92.1 r15371"
   sodipodi:docname="pp.svg">
  <defs
     id="defs2">
    <clipPath
       id="clipPath4505"
       clipPathUnits="userSpaceOnUse">
      <path
         inkscape:connector-curvature="0"
         id="path4503"
         d="M 0,278.93 H 1776.694 V 0 H 0 Z" />
    </clipPath>
  </defs>
  <sodipodi:namedview
     id="base"
     pagecolor="#ffffff"
     bordercolor="#666666"
     borderopacity="1.0"
     inkscape:pageopacity="0.0"
     inkscape:pageshadow="2"
     inkscape:zoom="0.35"
     inkscape:cx="-912.58524"
     inkscape:cy="1250.189"
     inkscape:document-units="mm"
     inkscape:current-layer="layer1"
     showgrid="false"
     fit-margin-top="0"
     fit-margin-left="0"
     fit-margin-right="0"
     fit-margin-bottom="0"
     inkscape:window-width="2560"
     inkscape:window-height="1315"
     inkscape:window-x="-13"
     inkscape:window-y="-13"
     inkscape:window-maximized="1" />
  <metadata
     id="metadata5">
    <rdf:RDF>
      <cc:Work
         rdf:about="">
        <dc:format>image/svg+xml</dc:format>
        <dc:type
           rdf:resource="http://purl.org/dc/dcmitype/StillImage" />
        <dc:title></dc:title>
      </cc:Work>
    </rdf:RDF>
  </metadata>
  <g
     inkscape:label="Layer 1"
     inkscape:groupmode="layer"
     id="layer1"
     transform="translate(-160.94592,-381.99465)">
    <g
       transform="matrix(0.35277777,0,0,-0.35277777,160.24022,480.39485)"
       inkscape:label="PP_logo_nowysygnet_ENG"
       id="g4493">
      <path
         inkscape:connector-curvature="0"
         id="path4495"
         style="fill:#005e8a;fill-opacity:1;fill-rule:nonzero;stroke:none"
         d="M 1776.694,222.575 H 337.166 v 4.684 h 1439.528 z" />
      <path
         inkscape:connector-curvature="0"
         id="path4497"
         style="fill:#005e8a;fill-opacity:1;fill-rule:nonzero;stroke:none"
         d="M 1776.694,51.506 H 337.166 v 4.683 h 1439.528 z" />
      <g
         id="g4499">
        <g
           clip-path="url(#clipPath4505)"
           id="g4501">
          <g
             transform="translate(366.9888,148.3032)"
             id="g4507">
            <path
               inkscape:connector-curvature="0"
               id="path4509"
               style="fill:#005c87;fill-opacity:1;fill-rule:nonzero;stroke:none"
               d="m 0,0 v 7.296 c 0,3.132 -1.173,4.696 -3.521,4.696 h -11.91 V -4.779 h 11.91 C -1.173,-4.779 0,-3.187 0,0 m 9.31,-0.503 c 0,-3.69 -1.035,-6.612 -3.103,-8.764 -2.07,-2.152 -4.865,-3.229 -8.387,-3.229 h -13.251 v -17.445 h 5.452 v -8.135 h -19.709 v 8.135 h 4.949 v 41.933 h -4.949 v 8.136 h 28.934 c 3.074,0 5.521,-0.951 7.339,-2.851 C 8.4,15.375 9.31,12.804 9.31,9.562 Z" />
          </g>
          <g
             transform="translate(413.7046,123.1436)"
             id="g4511">
            <path
               inkscape:connector-curvature="0"
               id="path4513"
               style="fill:#005c87;fill-opacity:1;fill-rule:nonzero;stroke:none"
               d="m 0,0 v 32.456 c 0,3.132 -1.152,4.696 -3.455,4.696 h -11.122 c -2.361,0 -3.539,-1.564 -3.539,-4.696 V 0 c 0,-3.188 1.178,-4.781 3.539,-4.781 H -3.455 C -1.152,-4.781 0,-3.188 0,0 m 9.308,-2.349 c 0,-3.243 -0.923,-5.814 -2.768,-7.715 -1.844,-1.902 -4.307,-2.852 -7.379,-2.852 h -16.522 c -3.076,0 -5.523,0.95 -7.339,2.852 -1.817,1.901 -2.725,4.472 -2.725,7.715 v 37.07 c 0,3.242 0.908,5.814 2.725,7.716 1.816,1.9 4.263,2.851 7.339,2.851 h 16.522 c 3.072,0 5.535,-0.951 7.379,-2.851 1.845,-1.902 2.768,-4.474 2.768,-7.716 z" />
          </g>
          <g
             transform="translate(471.5708,110.2275)"
             id="g4515">
            <path
               inkscape:connector-curvature="0"
               id="path4517"
               style="fill:#005c87;fill-opacity:1;fill-rule:nonzero;stroke:none"
               d="m 0,0 h -39.082 v 7.548 l 27.173,42.52 H -29.94 v -9.811 h -9.142 v 17.947 h 38.077 v -7.38 L -28.012,8.135 h 18.955 v 9.981 H 0 Z" />
          </g>
          <g
             transform="translate(529.6079,160.2954)"
             id="g4519">
            <path
               inkscape:connector-curvature="0"
               id="path4521"
               style="fill:#005c87;fill-opacity:1;fill-rule:nonzero;stroke:none"
               d="m 0,0 h -5.032 v -50.068 h -8.866 l -22.836,43.276 c 0.504,-3.411 0.755,-6.403 0.755,-8.974 v -34.302 h -13.586 v 8.135 h 5.031 V 0 h -5.031 v 8.136 h 14.673 l 22.052,-43.192 c -0.498,3.467 -0.747,6.43 -0.747,8.891 V 8.136 H 0 Z" />
          </g>
          <g
             transform="translate(566.3403,136.3115)"
             id="g4523">
            <path
               inkscape:connector-curvature="0"
               id="path4525"
               style="fill:#005c87;fill-opacity:1;fill-rule:nonzero;stroke:none"
               d="M 0,0 -5.955,25.412 -12.161,0 Z M 19.038,-26.084 H 6.373 L 1.844,-7.717 h -15.935 l -4.36,-18.367 h -11.406 v 8.135 h 4.444 L -12.161,32.12 H 1.258 l 13.251,-50.069 h 4.529 z" />
          </g>
          <g
             transform="translate(641.9868,160.2954)"
             id="g4527">
            <path
               inkscape:connector-curvature="0"
               id="path4529"
               style="fill:#005c87;fill-opacity:1;fill-rule:nonzero;stroke:none"
               d="m 0,0 h -5.032 v -50.068 h -8.865 l -22.836,43.276 c 0.502,-3.411 0.754,-6.403 0.754,-8.974 v -34.302 h -13.586 v 8.135 h 5.032 V 0 h -5.032 v 8.136 h 14.673 l 22.052,-43.192 c -0.497,3.467 -0.746,6.43 -0.746,8.891 V 8.136 H 0 Z" />
          </g>
          <g
             transform="translate(720.7368,160.2954)"
             id="g4531">
            <path
               inkscape:connector-curvature="0"
               id="path4533"
               style="fill:#005c87;fill-opacity:1;fill-rule:nonzero;stroke:none"
               d="m 0,0 h -5.116 v -37.656 c 0,-3.802 -1.074,-6.821 -3.223,-9.057 -2.147,-2.238 -5.006,-3.355 -8.574,-3.355 h -12.888 c -3.569,0 -6.428,1.117 -8.576,3.355 -2.148,2.236 -3.222,5.255 -3.222,9.057 V 0 h -5.031 v 8.136 h 14.342 v -45.288 c 0,-3.187 1.143,-4.781 3.437,-4.781 h 11.657 c 2.349,0 3.523,1.594 3.523,4.781 V 8.136 H 0 Z" />
          </g>
          <g
             transform="translate(778.1011,160.2954)"
             id="g4535">
            <path
               inkscape:connector-curvature="0"
               id="path4537"
               style="fill:#005c87;fill-opacity:1;fill-rule:nonzero;stroke:none"
               d="m 0,0 h -5.031 v -50.068 h -8.866 l -22.837,43.276 c 0.504,-3.411 0.755,-6.403 0.755,-8.974 v -34.302 h -13.585 v 8.135 h 5.031 V 0 h -5.031 v 8.136 h 14.672 l 22.053,-43.192 c -0.498,3.467 -0.748,6.43 -0.748,8.891 V 8.136 H 0 Z" />
          </g>
          <g
             transform="translate(805.106,110.2275)"
             id="g4539">
            <path
               inkscape:connector-curvature="0"
               id="path4541"
               style="fill:#005c87;fill-opacity:1;fill-rule:nonzero;stroke:none"
               d="m 0,0 h -19.204 v 8.135 h 4.947 v 41.933 h -4.947 v 8.136 H 0 V 50.068 H -4.948 V 8.135 H 0 Z" />
          </g>
          <g
             transform="translate(860.1216,160.2954)"
             id="g4543">
            <path
               inkscape:connector-curvature="0"
               id="path4545"
               style="fill:#005c87;fill-opacity:1;fill-rule:nonzero;stroke:none"
               d="M 0,0 H -4.948 L -18.367,-50.068 H -29.688 L -43.022,0 h -4.95 v 8.136 h 12.413 l 11.574,-46.63 11.488,46.63 H 0 Z" />
          </g>
          <g
             transform="translate(907.6724,110.2275)"
             id="g4547">
            <path
               inkscape:connector-curvature="0"
               id="path4549"
               style="fill:#005c87;fill-opacity:1;fill-rule:nonzero;stroke:none"
               d="m 0,0 h -40.423 v 8.135 h 4.947 v 41.933 h -4.947 v 8.136 H -0.755 V 40.173 H -8.89 v 9.895 H -26.166 V 33.966 H -7.631 V 26.168 H -26.166 V 8.135 h 17.864 v 10.4 H 0 Z" />
          </g>
          <g
             transform="translate(946.1665,148.3032)"
             id="g4551">
            <path
               inkscape:connector-curvature="0"
               id="path4553"
               style="fill:#005c87;fill-opacity:1;fill-rule:nonzero;stroke:none"
               d="m 0,0 v 7.296 c 0,3.132 -1.173,4.696 -3.521,4.696 H -15.432 V -4.779 H -3.521 C -1.173,-4.779 0,-3.187 0,0 M 14.426,-38.076 H 0.169 v 20.799 c 0,3.188 -1.148,4.781 -3.44,4.781 h -12.161 v -25.58 h -14.256 v 8.135 h 4.947 v 41.933 h -4.947 v 8.136 h 28.933 c 3.075,0 5.522,-0.951 7.338,-2.851 C 8.4,15.375 9.31,12.804 9.31,9.562 V 0.168 c 0,-4.642 -2.6,-7.325 -7.8,-8.052 2.963,-0.727 5.032,-1.914 6.207,-3.563 1.174,-1.65 1.761,-4.096 1.761,-7.34 v -11.154 h 4.948 z" />
          </g>
          <g
             transform="translate(1003.6167,120.7949)"
             id="g4555">
            <path
               inkscape:connector-curvature="0"
               id="path4557"
               style="fill:#005c87;fill-opacity:1;fill-rule:nonzero;stroke:none"
               d="m 0,0 c 0,-3.243 -0.908,-5.814 -2.726,-7.716 -1.817,-1.901 -4.263,-2.851 -7.338,-2.851 H -35.477 V 6.542 H -26 v -8.975 h 13.168 c 2.349,0 3.523,1.594 3.523,4.782 v 7.464 c 0,3.186 -1.174,4.78 -3.523,4.78 h -11.992 c -3.076,0 -5.523,0.951 -7.339,2.852 -1.817,1.9 -2.726,4.472 -2.726,7.716 V 37.07 c 0,3.242 0.909,5.814 2.726,7.715 1.816,1.901 4.263,2.851 7.339,2.851 H -0.923 V 32.038 h -9.141 V 39.5 h -11.993 c -2.349,0 -3.522,-1.563 -3.522,-4.695 v -6.793 c 0,-3.187 1.173,-4.781 3.522,-4.781 h 11.993 c 3.075,0 5.521,-0.951 7.338,-2.851 C -0.908,18.479 0,15.906 0,12.664 Z" />
          </g>
          <g
             transform="translate(1031.9624,110.2275)"
             id="g4559">
            <path
               inkscape:connector-curvature="0"
               id="path4561"
               style="fill:#005c87;fill-opacity:1;fill-rule:nonzero;stroke:none"
               d="m 0,0 h -19.205 v 8.135 h 4.949 v 41.933 h -4.949 v 8.136 H 0 V 50.068 H -4.947 V 8.135 H 0 Z" />
          </g>
          <g
             transform="translate(1084.8823,152.0776)"
             id="g4563">
            <path
               inkscape:connector-curvature="0"
               id="path4565"
               style="fill:#005c87;fill-opacity:1;fill-rule:nonzero;stroke:none"
               d="m 0,0 h -8.555 v 8.218 h -9.224 v -41.933 h 5.451 v -8.135 h -20.213 v 8.135 h 5.452 V 8.218 h -9.309 V 0 h -8.554 V 16.354 H 0 Z" />
          </g>
          <g
             transform="translate(1137.5483,160.2954)"
             id="g4567">
            <path
               inkscape:connector-curvature="0"
               id="path4569"
               style="fill:#005c87;fill-opacity:1;fill-rule:nonzero;stroke:none"
               d="m 0,0 h -4.946 l -12.916,-23.817 v -18.116 h 5.2 v -8.135 h -19.793 v 8.135 h 5.283 v 17.697 L -40.256,0 h -4.947 v 8.136 h 11.658 L -22.14,-15.682 -10.818,8.136 H 0 Z" />
          </g>
          <g
             transform="translate(1198.1021,123.1436)"
             id="g4571">
            <path
               inkscape:connector-curvature="0"
               id="path4573"
               style="fill:#005c87;fill-opacity:1;fill-rule:nonzero;stroke:none"
               d="m 0,0 v 32.456 c 0,3.132 -1.151,4.696 -3.455,4.696 h -11.121 c -2.361,0 -3.54,-1.564 -3.54,-4.696 V 0 c 0,-3.188 1.179,-4.781 3.54,-4.781 H -3.455 C -1.151,-4.781 0,-3.188 0,0 m 9.309,-2.349 c 0,-3.243 -0.923,-5.814 -2.769,-7.715 -1.844,-1.902 -4.305,-2.852 -7.379,-2.852 H -17.36 c -3.077,0 -5.524,0.95 -7.339,2.852 -1.818,1.901 -2.727,4.472 -2.727,7.715 v 37.07 c 0,3.242 0.909,5.814 2.727,7.716 1.815,1.9 4.262,2.851 7.339,2.851 h 16.521 c 3.074,0 5.535,-0.951 7.379,-2.851 1.846,-1.902 2.769,-4.474 2.769,-7.716 z" />
          </g>
          <g
             transform="translate(1254.9634,150.4004)"
             id="g4575">
            <path
               inkscape:connector-curvature="0"
               id="path4577"
               style="fill:#005c87;fill-opacity:1;fill-rule:nonzero;stroke:none"
               d="M 0,0 H -8.808 V 9.895 H -24.155 V -6.207 h 19.206 v -8.134 h -19.206 v -17.697 h 5.535 v -8.135 h -19.791 v 8.135 h 4.947 V 9.895 h -4.947 v 8.136 H 0 Z" />
          </g>
          <g
             transform="translate(1332.2026,152.0776)"
             id="g4579">
            <path
               inkscape:connector-curvature="0"
               id="path4581"
               style="fill:#005c87;fill-opacity:1;fill-rule:nonzero;stroke:none"
               d="m 0,0 h -8.553 v 8.218 h -9.226 v -41.933 h 5.452 V -41.85 H -32.54 v 8.135 h 5.452 V 8.218 h -9.309 V 0 h -8.555 V 16.354 H 0 Z" />
          </g>
          <g
             transform="translate(1380.6772,110.2275)"
             id="g4583">
            <path
               inkscape:connector-curvature="0"
               id="path4585"
               style="fill:#005c87;fill-opacity:1;fill-rule:nonzero;stroke:none"
               d="m 0,0 h -40.424 v 8.135 h 4.949 v 41.933 h -4.949 v 8.136 H -0.755 V 40.173 H -8.89 v 9.895 H -26.166 V 33.966 H -7.631 V 26.168 H -26.166 V 8.135 h 17.863 v 10.4 H 0 Z" />
          </g>
          <g
             transform="translate(1426.1343,110.2275)"
             id="g4587">
            <path
               inkscape:connector-curvature="0"
               id="path4589"
               style="fill:#005c87;fill-opacity:1;fill-rule:nonzero;stroke:none"
               d="m 0,0 h -25.329 c -3.075,0 -5.522,0.95 -7.339,2.852 -1.816,1.901 -2.725,4.472 -2.725,7.715 v 37.07 c 0,3.242 0.909,5.814 2.725,7.716 1.817,1.9 4.264,2.851 7.339,2.851 H 0 V 39.921 h -8.221 v 10.147 h -14.34 c -2.349,0 -3.523,-1.564 -3.523,-4.696 V 12.916 c 0,-3.187 1.174,-4.781 3.523,-4.781 h 14.34 V 18.451 H 0 Z" />
          </g>
          <g
             transform="translate(1480.228,110.2275)"
             id="g4591">
            <path
               inkscape:connector-curvature="0"
               id="path4593"
               style="fill:#005c87;fill-opacity:1;fill-rule:nonzero;stroke:none"
               d="M 0,0 H -14.258 V 25.412 H -31.535 V 0 h -14.257 v 8.135 h 4.947 v 41.933 h -4.947 v 8.136 h 14.257 V 32.792 h 17.277 V 58.204 H 0 V 50.068 H -4.949 V 8.135 H 0 Z" />
          </g>
          <g
             transform="translate(1537.6753,160.2954)"
             id="g4595">
            <path
               inkscape:connector-curvature="0"
               id="path4597"
               style="fill:#005c87;fill-opacity:1;fill-rule:nonzero;stroke:none"
               d="m 0,0 h -5.032 v -50.068 h -8.865 l -22.836,43.276 c 0.503,-3.411 0.754,-6.403 0.754,-8.974 v -34.302 h -13.586 v 8.135 h 5.032 V 0 h -5.032 v 8.136 h 14.673 l 22.052,-43.192 c -0.497,3.467 -0.746,6.43 -0.746,8.891 V 8.136 H 0 Z" />
          </g>
          <g
             transform="translate(1574.1577,123.1436)"
             id="g4599">
            <path
               inkscape:connector-curvature="0"
               id="path4601"
               style="fill:#005c87;fill-opacity:1;fill-rule:nonzero;stroke:none"
               d="m 0,0 v 32.456 c 0,3.132 -1.153,4.696 -3.455,4.696 h -11.121 c -2.362,0 -3.541,-1.564 -3.541,-4.696 V 0 c 0,-3.188 1.179,-4.781 3.541,-4.781 H -3.455 C -1.153,-4.781 0,-3.188 0,0 m 9.309,-2.349 c 0,-3.243 -0.923,-5.814 -2.768,-7.715 -1.845,-1.902 -4.306,-2.852 -7.381,-2.852 h -16.521 c -3.076,0 -5.522,0.95 -7.339,2.852 -1.818,1.901 -2.726,4.472 -2.726,7.715 v 37.07 c 0,3.242 0.908,5.814 2.726,7.716 1.817,1.9 4.263,2.851 7.339,2.851 H -0.84 c 3.075,0 5.536,-0.951 7.381,-2.851 1.845,-1.902 2.768,-4.474 2.768,-7.716 z" />
          </g>
          <g
             transform="translate(1630.6831,110.2275)"
             id="g4603">
            <path
               inkscape:connector-curvature="0"
               id="path4605"
               style="fill:#005c87;fill-opacity:1;fill-rule:nonzero;stroke:none"
               d="m 0,0 h -38.076 v 8.135 h 4.949 v 41.933 h -4.949 v 8.136 h 19.625 v -8.136 h -5.368 V 8.135 H -8.388 V 19.794 H 0 Z" />
          </g>
          <g
             transform="translate(1666.8296,123.1436)"
             id="g4607">
            <path
               inkscape:connector-curvature="0"
               id="path4609"
               style="fill:#005c87;fill-opacity:1;fill-rule:nonzero;stroke:none"
               d="m 0,0 v 32.456 c 0,3.132 -1.152,4.696 -3.454,4.696 h -11.121 c -2.362,0 -3.54,-1.564 -3.54,-4.696 V 0 c 0,-3.188 1.178,-4.781 3.54,-4.781 H -3.454 C -1.152,-4.781 0,-3.188 0,0 m 9.309,-2.349 c 0,-3.243 -0.922,-5.814 -2.768,-7.715 -1.845,-1.902 -4.306,-2.852 -7.379,-2.852 H -17.36 c -3.077,0 -5.523,0.95 -7.339,2.852 -1.818,1.901 -2.726,4.472 -2.726,7.715 v 37.07 c 0,3.242 0.908,5.814 2.726,7.716 1.816,1.9 4.262,2.851 7.339,2.851 h 16.522 c 3.073,0 5.534,-0.951 7.379,-2.851 1.846,-1.902 2.768,-4.474 2.768,-7.716 z" />
          </g>
          <g
             transform="translate(1722.6841,110.2275)"
             id="g4611">
            <path
               inkscape:connector-curvature="0"
               id="path4613"
               style="fill:#005c87;fill-opacity:1;fill-rule:nonzero;stroke:none"
               d="m 0,0 h -26.082 c -3.076,0 -5.522,0.95 -7.339,2.852 -1.817,1.901 -2.725,4.472 -2.725,7.715 v 37.07 c 0,3.242 0.908,5.814 2.725,7.716 1.817,1.9 4.263,2.851 7.339,2.851 H -0.588 V 40.508 h -8.386 v 9.56 h -14.341 c -2.348,0 -3.523,-1.564 -3.523,-4.696 V 12.916 c 0,-3.187 1.175,-4.781 3.523,-4.781 h 14.341 v 17.11 h -9.56 v 8.134 H 0 Z" />
          </g>
          <g
             transform="translate(1776.6938,160.2954)"
             id="g4615">
            <path
               inkscape:connector-curvature="0"
               id="path4617"
               style="fill:#005c87;fill-opacity:1;fill-rule:nonzero;stroke:none"
               d="m 0,0 h -4.948 l -12.915,-23.817 v -18.116 h 5.2 v -8.135 h -19.793 v 8.135 h 5.283 v 17.697 L -40.257,0 h -4.947 v 8.136 h 11.657 l 11.406,-23.818 11.322,23.818 H 0 Z" />
          </g>
          <g
             transform="translate(278.7124,140.5737)"
             id="g4619">
            <path
               inkscape:connector-curvature="0"
               id="path4621"
               style="fill:#005e8a;fill-opacity:1;fill-rule:evenodd;stroke:none"
               d="m 0,0 c 0,-76.412 -61.945,-138.356 -138.356,-138.356 -76.411,0 -138.356,61.944 -138.356,138.356 0,76.411 61.945,138.356 138.356,138.356 C -61.945,138.356 0,76.411 0,0" />
          </g>
          <g
             transform="translate(241.0054,176.1025)"
             id="g4623">
            <path
               inkscape:connector-curvature="0"
               id="path4625"
               style="fill:#ffffff;fill-opacity:1;fill-rule:nonzero;stroke:none"
               d="M 0,0 1.89,0.795 1.442,1.861 11.827,9.85 10.511,12.978 -2.469,11.159 -2.901,12.19 -4.793,11.395 -3.679,8.749 1.027,9.534 2.595,5.805 -1.244,2.956 Z M 4.218,6.994 3.025,9.83 9.559,10.877 Z" />
          </g>
          <g
             transform="translate(235.4419,189.0566)"
             id="g4627">
            <path
               inkscape:connector-curvature="0"
               id="path4629"
               style="fill:#ffffff;fill-opacity:1;fill-rule:nonzero;stroke:none"
               d="M 0,0 1.778,1.021 1.155,2.105 4.243,3.879 C 5.682,4.706 6.07,6.09 5.299,7.432 L 4.565,8.708 9.761,8.404 10.616,6.917 12.411,7.948 10.961,10.47 3.271,10.589 9.002,13.881 7.21,17.001 5.415,15.97 6.038,14.887 -3.154,9.607 -3.775,10.69 -5.556,9.668 -3.763,6.548 1.767,9.725 3.291,7.073 C 3.606,6.523 3.397,6.102 2.702,5.702 L -1.792,3.121 Z" />
          </g>
          <g
             transform="translate(230.4604,202.5156)"
             id="g4631">
            <path
               inkscape:connector-curvature="0"
               id="path4633"
               style="fill:#ffffff;fill-opacity:1;fill-rule:nonzero;stroke:none"
               d="m 0,0 2.587,1.893 c 1.34,0.98 1.57,2.372 0.655,3.621 L 1.447,7.967 C 1.074,8.479 1.251,8.932 1.896,9.403 l 1.382,1.011 c 0.66,0.482 1.116,0.492 1.489,-0.02 L 6.562,7.941 5.045,6.832 6.409,4.965 9.596,7.297 6.029,12.172 c -0.912,1.25 -2.335,1.457 -3.673,0.479 L -0.06,10.883 C -1.398,9.903 -1.633,8.485 -0.721,7.236 L 1.064,4.798 C 1.438,4.286 1.276,3.845 0.613,3.36 L -0.905,2.249 C -1.553,1.775 -2.039,1.744 -2.412,2.255 L -4.373,4.934 -2.536,6.277 -3.955,8.218 -7.447,5.665 -3.65,0.473 C -2.736,-0.776 -1.324,-0.969 0,0" />
          </g>
          <g
             transform="translate(232.8726,225.373)"
             id="g4635">
            <path
               inkscape:connector-curvature="0"
               id="path4637"
               style="fill:#ffffff;fill-opacity:1;fill-rule:nonzero;stroke:none"
               d="M 0,0 -1.606,1.663 -4.828,0.677 -3.544,-0.65 Z m -1.993,-6.902 1.49,1.438 -2.384,2.468 -6.247,-6.032 c -0.455,-0.439 -0.953,-0.998 -1.476,-1.685 l 3.979,11.593 -2.577,2.669 -1.488,-1.438 0.867,-0.898 -7.625,-7.363 -0.868,0.898 -1.475,-1.424 2.383,-2.469 6.232,6.019 c 0.457,0.44 0.968,1.012 1.507,1.715 l -3.841,-11.771 1.555,-1.609 9.101,8.788 z" />
          </g>
          <g
             transform="translate(212.563,227.7256)"
             id="g4639">
            <path
               inkscape:connector-curvature="0"
               id="path4641"
               style="fill:#ffffff;fill-opacity:1;fill-rule:nonzero;stroke:none"
               d="m 0,0 -2.384,1.946 5.28,3.986 z M -0.45,-8.156 0.848,-6.567 -0.05,-5.836 5.382,6.087 2.755,8.234 -7.861,0.545 l -0.867,0.708 -1.297,-1.588 2.225,-1.817 3.787,2.9 3.134,-2.56 -2.056,-4.315 z" />
          </g>
          <g
             transform="translate(208.7163,238.5352)"
             id="g4643">
            <path
               inkscape:connector-curvature="0"
               id="path4645"
               style="fill:#ffffff;fill-opacity:1;fill-rule:nonzero;stroke:none"
               d="m 0,0 1.08,1.767 -2.928,1.788 -4.527,-7.409 c -0.329,-0.541 -0.672,-1.207 -1.006,-2.004 l 0.936,12.223 -3.166,1.934 -1.079,-1.766 1.065,-0.651 -5.527,-9.046 -1.065,0.652 -1.071,-1.75 2.929,-1.789 4.517,7.393 c 0.329,0.541 0.682,1.222 1.027,2.038 l -0.754,-12.357 1.908,-1.167 6.596,10.796 z" />
          </g>
          <g
             transform="translate(189.5122,235.3154)"
             id="g4647">
            <path
               inkscape:connector-curvature="0"
               id="path4649"
               style="fill:#ffffff;fill-opacity:1;fill-rule:nonzero;stroke:none"
               d="m 0,0 1.916,4.164 -2.082,0.959 -1.06,-2.3 -4.353,2.004 10.711,6.943 0.789,1.71 -8.739,4.025 -1.901,-4.13 2.099,-0.967 1.037,2.25 4.132,-1.903 -10.73,-6.894 -0.795,-1.727 z" />
          </g>
          <g
             transform="translate(179.2598,242.8511)"
             id="g4651">
            <path
               inkscape:connector-curvature="0"
               id="path4653"
               style="fill:#ffffff;fill-opacity:1;fill-rule:nonzero;stroke:none"
               d="m 0,0 3.014,8.872 c 0.534,1.57 -0.091,2.865 -1.556,3.363 l -3.954,1.344 C -3.961,14.077 -5.244,13.43 -5.778,11.858 L -8.792,2.987 c -0.527,-1.554 0.096,-2.849 1.561,-3.346 l 3.955,-1.344 C -1.811,-2.201 -0.528,-1.554 0,0 M -2.05,1.327 C -2.308,0.568 -2.669,0.257 -3.27,0.461 l -2.647,0.9 c -0.602,0.203 -0.717,0.676 -0.459,1.435 l 2.638,7.762 c 0.262,0.774 0.63,1.043 1.23,0.839 L 0.14,10.498 C 0.74,10.294 0.85,9.863 0.587,9.089 Z" />
          </g>
          <g
             transform="translate(169.6021,253.1484)"
             id="g4655">
            <path
               inkscape:connector-curvature="0"
               id="path4657"
               style="fill:#ffffff;fill-opacity:1;fill-rule:nonzero;stroke:none"
               d="m 0,0 0.504,2.482 c 0.33,1.623 -0.436,2.825 -1.952,3.132 l -7.181,1.457 -0.412,-2.028 1.224,-0.249 -2.107,-10.388 -1.224,0.248 -0.408,-2.01 4.879,-0.99 0.408,2.011 -1.353,0.274 0.879,4.331 3.289,-0.668 C -1.718,-2.75 -0.377,-1.861 0,0 m -2.279,0.576 c -0.159,-0.783 -0.494,-1.114 -1.115,-0.988 l -2.96,0.6 0.84,4.139 2.959,-0.6 C -1.933,3.601 -1.75,3.183 -1.914,2.382 Z" />
          </g>
          <g
             transform="translate(148.2622,247.082)"
             id="g4659">
            <path
               inkscape:connector-curvature="0"
               id="path4661"
               style="fill:#ffffff;fill-opacity:1;fill-rule:nonzero;stroke:none"
               d="m 0,0 0.027,2.051 -1.157,0.015 -3.171,12.712 -3.393,0.044 -3.522,-12.624 -1.118,0.014 -0.028,-2.05 2.872,-0.038 1.16,4.628 4.046,-0.053 1.076,-4.657 z m -4.724,6.663 -3.077,0.04 1.651,6.405 z" />
          </g>
          <g
             transform="translate(134.4619,247.1914)"
             id="g4663">
            <path
               inkscape:connector-curvature="0"
               id="path4665"
               style="fill:#ffffff;fill-opacity:1;fill-rule:nonzero;stroke:none"
               d="M 0,0 -0.224,2.039 -1.466,1.902 -1.855,5.442 C -2.038,7.091 -3.151,8 -4.688,7.832 l -1.466,-0.162 2.36,4.64 1.705,0.188 -0.226,2.057 -2.892,-0.319 -3.187,-7 -0.723,6.57 -3.577,-0.394 0.227,-2.057 1.241,0.136 1.16,-10.536 -1.241,-0.137 0.224,-2.038 3.578,0.394 -0.699,6.338 3.039,0.335 c 0.631,0.07 0.933,-0.292 1.021,-1.089 l 0.567,-5.152 z" />
          </g>
          <g
             transform="translate(121.5127,245.5615)"
             id="g4667">
            <path
               inkscape:connector-curvature="0"
               id="path4669"
               style="fill:#ffffff;fill-opacity:1;fill-rule:nonzero;stroke:none"
               d="m 0,0 -0.402,2.011 -1.243,-0.248 -2.075,10.395 1.243,0.247 -0.406,2.03 -4.771,-0.953 0.405,-2.029 1.225,0.245 2.075,-10.396 -1.225,-0.244 0.402,-2.011 z" />
          </g>
          <g
             transform="translate(111.2769,256.3809)"
             id="g4671">
            <path
               inkscape:connector-curvature="0"
               id="path4673"
               style="fill:#ffffff;fill-opacity:1;fill-rule:nonzero;stroke:none"
               d="M 0,0 -0.609,1.978 -3.888,0.97 -1.335,-7.329 C -1.15,-7.936 -0.876,-8.632 -0.5,-9.41 l -8.538,8.796 -3.547,-1.091 0.609,-1.979 1.195,0.368 3.115,-10.132 -1.194,-0.367 0.603,-1.96 3.278,1.008 -2.545,8.281 c -0.187,0.606 -0.465,1.32 -0.849,2.12 l 8.759,-8.751 2.139,0.658 -3.719,12.092 z" />
          </g>
          <g
             transform="translate(101.0386,239.7915)"
             id="g4675">
            <path
               inkscape:connector-curvature="0"
               id="path4677"
               style="fill:#ffffff;fill-opacity:1;fill-rule:nonzero;stroke:none"
               d="M 0,0 -0.867,1.858 -2,1.331 l -4.486,9.623 1.131,0.528 -0.874,1.876 -3.261,-1.52 2.721,-5.839 -3.97,-1.852 -2.722,5.839 -3.262,-1.521 0.874,-1.876 1.132,0.528 4.489,-9.624 -1.133,-0.528 0.867,-1.858 3.261,1.52 -2.718,5.831 3.971,1.852 2.718,-5.831 z" />
          </g>
          <g
             transform="translate(88.4839,233.8022)"
             id="g4679">
            <path
               inkscape:connector-curvature="0"
               id="path4681"
               style="fill:#ffffff;fill-opacity:1;fill-rule:nonzero;stroke:none"
               d="m 0,0 -2.407,3.987 -1.773,-1.07 1.349,-2.231 -3.112,-1.88 c -0.544,-0.327 -0.978,-0.111 -1.393,0.575 l -4.239,7.017 c -0.422,0.7 -0.391,1.154 0.151,1.482 l 3.113,1.879 1.319,-2.183 1.772,1.07 -2.39,3.955 -5.473,-3.307 c -1.326,-0.799 -1.657,-2.198 -0.8,-3.618 l 4.844,-8.021 c 0.849,-1.404 2.241,-1.761 3.565,-0.961 z" />
          </g>
          <g
             transform="translate(78.957,227.7944)"
             id="g4683">
            <path
               inkscape:connector-curvature="0"
               id="path4685"
               style="fill:#ffffff;fill-opacity:1;fill-rule:nonzero;stroke:none"
               d="m 0,0 -2.881,3.688 -1.645,-1.286 1.618,-2.071 -3.571,-2.789 -2.813,3.599 3.703,2.893 -1.216,1.557 -3.704,-2.893 -2.495,3.196 3.453,2.698 1.533,-1.965 1.617,1.264 -2.808,3.594 -7.905,-6.175 1.274,-1.632 0.985,0.77 6.526,-8.353 -0.985,-0.769 1.262,-1.617 z" />
          </g>
          <g
             transform="translate(62.2085,227.9995)"
             id="g4687">
            <path
               inkscape:connector-curvature="0"
               id="path4689"
               style="fill:#ffffff;fill-opacity:1;fill-rule:nonzero;stroke:none"
               d="m 0,0 -2.896,2.952 -8.13,-7.981 2.898,-2.952 1.556,1.528 -1.448,1.475 1.664,1.633 7.426,-7.564 -0.971,-0.953 1.437,-1.464 3.645,3.579 -1.437,1.464 -0.984,-0.967 -7.427,7.563 1.664,1.634 1.448,-1.475 z" />
          </g>
          <g
             transform="translate(60.4663,211.2861)"
             id="g4691">
            <path
               inkscape:connector-curvature="0"
               id="path4693"
               style="fill:#ffffff;fill-opacity:1;fill-rule:nonzero;stroke:none"
               d="m 0,0 -1.563,1.329 -0.821,-0.966 -8.075,6.867 0.822,0.965 -1.577,1.341 -3.153,-3.707 1.576,-1.341 0.811,0.952 8.074,-6.867 -0.809,-0.952 1.562,-1.328 z" />
          </g>
          <g
             transform="translate(55.832,205.7241)"
             id="g4695">
            <path
               inkscape:connector-curvature="0"
               id="path4697"
               style="fill:#ffffff;fill-opacity:1;fill-rule:nonzero;stroke:none"
               d="m 0,0 -4.089,2.866 -1.22,-1.741 2.409,-1.688 -2.247,-3.207 -8.68,6.084 0.781,1.114 -1.695,1.188 -2.847,-4.061 1.696,-1.188 0.716,1.023 8.681,-6.083 -0.717,-1.024 1.679,-1.177 z" />
          </g>
          <g
             transform="translate(46.6768,197.228)"
             id="g4699">
            <path
               inkscape:connector-curvature="0"
               id="path4701"
               style="fill:#ffffff;fill-opacity:1;fill-rule:nonzero;stroke:none"
               d="m 0,0 -8.272,4.399 c -1.465,0.779 -2.844,0.372 -3.571,-0.995 l -1.96,-3.687 c -0.727,-1.366 -0.295,-2.737 1.172,-3.516 l 8.271,-4.399 c 1.449,-0.771 2.828,-0.363 3.554,1.004 l 1.96,3.687 C 1.881,-2.141 1.449,-0.77 0,0 m -1.639,-1.811 c 0.708,-0.376 0.957,-0.782 0.659,-1.342 L -2.293,-5.622 C -2.59,-6.182 -3.075,-6.22 -3.784,-5.844 l -7.237,3.849 c -0.722,0.384 -0.928,0.789 -0.631,1.349 l 1.313,2.47 c 0.297,0.559 0.741,0.598 1.463,0.215 z" />
          </g>
          <g
             transform="translate(34.6445,189.1519)"
             id="g4703">
            <path
               inkscape:connector-curvature="0"
               id="path4705"
               style="fill:#ffffff;fill-opacity:1;fill-rule:nonzero;stroke:none"
               d="m 0,0 -2.362,0.917 c -1.544,0.599 -2.856,0.048 -3.417,-1.395 l -2.651,-6.83 1.93,-0.749 0.451,1.164 9.882,-3.835 -0.452,-1.165 1.912,-0.741 1.802,4.641 -1.912,0.742 -0.5,-1.287 -4.119,1.6 1.213,3.128 C 2.418,-2.159 1.77,-0.687 0,0 m -0.955,-2.149 c 0.746,-0.289 1.016,-0.674 0.787,-1.266 l -1.093,-2.815 -3.937,1.528 1.092,2.815 c 0.23,0.592 0.672,0.699 1.434,0.404 z" />
          </g>
          <g
             transform="translate(248.4722,152.9854)"
             id="g4707">
            <path
               inkscape:connector-curvature="0"
               id="path4709"
               style="fill:#ffffff;fill-opacity:1;fill-rule:nonzero;stroke:none"
               d="m 0,0 -2.065,-0.12 0.156,-2.717 6.193,-2.517 -5.86,-3.235 0.17,-2.942 2.067,0.12 -0.073,1.248 5.928,3.667 4.463,0.259 0.077,-1.341 2.048,0.119 -0.289,4.988 -2.047,-0.118 0.074,-1.303 -4.576,-0.265 -6.194,2.91 z" />
          </g>
          <g
             transform="translate(261.728,138.9136)"
             id="g4711">
            <path
               inkscape:connector-curvature="0"
               id="path4713"
               style="fill:#ffffff;fill-opacity:1;fill-rule:nonzero;stroke:none"
               d="m 0,0 -8.438,0.354 -0.196,-4.678 2.067,-0.086 0.103,2.422 4.32,-0.179 -0.152,-3.633 c -0.026,-0.635 -0.447,-0.878 -1.248,-0.844 l -8.19,0.343 c -0.817,0.034 -1.177,0.31 -1.153,0.943 l 0.153,3.633 2.416,-0.101 0.088,2.105 -4.484,0.188 -0.268,-6.427 c -0.065,-1.547 0.916,-2.597 2.572,-2.665 l 9.364,-0.391 c 1.64,-0.07 2.707,0.893 2.772,2.44 z" />
          </g>
          <g
             transform="translate(258.2964,126.3672)"
             id="g4715">
            <path
               inkscape:connector-curvature="0"
               id="path4717"
               style="fill:#ffffff;fill-opacity:1;fill-rule:nonzero;stroke:none"
               d="m 0,0 -9.249,1.482 c -1.639,0.263 -2.813,-0.57 -3.056,-2.097 l -0.661,-4.123 c -0.246,-1.529 0.608,-2.685 2.246,-2.948 l 9.251,-1.484 c 1.62,-0.259 2.791,0.573 3.037,2.102 l 0.661,4.123 C 2.476,-1.418 1.622,-0.26 0,0 m -0.962,-2.244 c 0.791,-0.126 1.157,-0.431 1.058,-1.058 l -0.444,-2.761 c -0.099,-0.626 -0.545,-0.819 -1.338,-0.691 l -8.094,1.297 c -0.807,0.128 -1.134,0.446 -1.033,1.071 l 0.442,2.763 c 0.1,0.626 0.507,0.806 1.314,0.676 z" />
          </g>
          <g
             transform="translate(258.7769,113.7334)"
             id="g4719">
            <path
               inkscape:connector-curvature="0"
               id="path4721"
               style="fill:#ffffff;fill-opacity:1;fill-rule:nonzero;stroke:none"
               d="m 0,0 -4.827,1.278 -0.545,-2.053 2.846,-0.754 -1.004,-3.786 -10.246,2.714 0.348,1.315 -2,0.532 -1.271,-4.796 2.003,-0.529 0.318,1.208 10.248,-2.715 -0.32,-1.206 1.981,-0.526 z" />
          </g>
          <g
             transform="translate(252.4536,101.4492)"
             id="g4723">
            <path
               inkscape:connector-curvature="0"
               id="path4725"
               style="fill:#ffffff;fill-opacity:1;fill-rule:nonzero;stroke:none"
               d="m 0,0 -8.76,3.322 c -1.551,0.589 -2.867,0.012 -3.416,-1.434 l -1.482,-3.906 c -0.549,-1.446 0.054,-2.751 1.604,-3.339 l 8.76,-3.326 c 1.533,-0.581 2.85,-0.003 3.398,1.443 l 1.483,3.906 C 2.136,-1.889 1.534,-0.583 0,0 m -1.398,-2.003 c 0.751,-0.283 1.047,-0.657 0.823,-1.249 l -0.993,-2.614 c -0.225,-0.593 -0.701,-0.692 -1.45,-0.408 l -7.665,2.909 c -0.763,0.29 -1.02,0.667 -0.796,1.26 l 0.993,2.614 c 0.224,0.592 0.659,0.687 1.423,0.397 z" />
          </g>
          <g
             transform="translate(238.8091,94.2324)"
             id="g4727">
            <path
               inkscape:connector-curvature="0"
               id="path4729"
               style="fill:#ffffff;fill-opacity:1;fill-rule:nonzero;stroke:none"
               d="M 0,0 -1.814,0.996 -3.466,-2.01 4.144,-6.192 C 4.698,-6.497 5.38,-6.808 6.191,-7.104 l -12.252,0.371 -1.787,-3.252 1.814,-0.996 0.602,1.094 9.289,-5.103 -0.601,-1.096 1.796,-0.988 1.654,3.006 -7.594,4.172 c -0.556,0.307 -1.252,0.625 -2.083,0.934 l 12.378,-0.187 1.078,1.962 -11.088,6.091 z" />
          </g>
          <g
             transform="translate(241.647,73.5283)"
             id="g4731">
            <path
               inkscape:connector-curvature="0"
               id="path4733"
               style="fill:#ffffff;fill-opacity:1;fill-rule:nonzero;stroke:none"
               d="m 0,0 -1.647,1.224 -0.746,-1.003 -8.523,6.333 0.745,1.002 -1.662,1.235 -2.145,-2.891 5.17,-3.84 -2.611,-3.517 -5.173,3.843 -2.145,-2.891 1.661,-1.234 0.745,1.004 8.524,-6.333 -0.745,-1.002 1.646,-1.223 2.147,2.888 -5.165,3.835 2.614,3.519 5.164,-3.837 z" />
          </g>
          <g
             transform="translate(232.0757,61.0801)"
             id="g4735">
            <path
               inkscape:connector-curvature="0"
               id="path4737"
               style="fill:#ffffff;fill-opacity:1;fill-rule:nonzero;stroke:none"
               d="m 0,0 -3.448,3.132 -1.391,-1.531 1.93,-1.753 -2.445,-2.693 c -0.426,-0.468 -0.907,-0.386 -1.499,0.153 l -6.068,5.513 c -0.603,0.549 -0.705,0.993 -0.28,1.462 l 2.446,2.692 1.889,-1.715 1.39,1.532 -3.42,3.105 -4.299,-4.734 c -1.041,-1.145 -0.959,-2.58 0.27,-3.696 l 6.935,-6.299 c 1.214,-1.103 2.65,-1.048 3.69,0.098 z" />
          </g>
          <g
             transform="translate(223.062,51.6836)"
             id="g4739">
            <path
               inkscape:connector-curvature="0"
               id="path4741"
               style="fill:#ffffff;fill-opacity:1;fill-rule:nonzero;stroke:none"
               d="M 0,0 -3.04,3.557 -4.627,2.2 l 1.709,-1.998 -3.445,-2.943 -2.968,3.47 3.57,3.055 -1.284,1.501 -3.57,-3.054 -2.637,3.082 3.33,2.849 1.619,-1.893 1.561,1.331 -2.967,3.467 -7.622,-6.519 1.345,-1.572 0.949,0.811 6.889,-8.057 -0.951,-0.811 1.333,-1.559 z" />
          </g>
          <g
             transform="translate(206.5747,51.665)"
             id="g4743">
            <path
               inkscape:connector-curvature="0"
               id="path4745"
               style="fill:#ffffff;fill-opacity:1;fill-rule:nonzero;stroke:none"
               d="m 0,0 -2.298,3.438 -9.473,-6.329 2.298,-3.438 1.816,1.211 -1.149,1.719 1.938,1.294 5.889,-8.814 -1.131,-0.757 1.138,-1.705 4.249,2.839 -1.139,1.705 -1.149,-0.766 -5.889,8.814 1.939,1.293 1.148,-1.716 z" />
          </g>
          <g
             transform="translate(189.4038,40.7139)"
             id="g4747">
            <path
               inkscape:connector-curvature="0"
               id="path4749"
               style="fill:#ffffff;fill-opacity:1;fill-rule:nonzero;stroke:none"
               d="m 0,0 -1.847,4.172 -8.883,-3.929 0.837,-1.891 1.143,0.504 4.288,-9.693 -1.143,-0.507 0.828,-1.875 4.588,2.03 -0.831,1.875 -1.295,-0.575 -1.81,4.093 4.45,1.97 -0.836,1.891 -4.45,-1.967 -1.641,3.71 3.565,1.575 1.008,-2.28 z" />
          </g>
          <g
             transform="translate(159.6675,33.4932)"
             id="g4751">
            <path
               inkscape:connector-curvature="0"
               id="path4753"
               style="fill:#ffffff;fill-opacity:1;fill-rule:nonzero;stroke:none"
               d="m 0,0 -0.262,2.052 -2.7,-0.343 -2.083,-6.355 -3.632,5.623 -2.923,-0.372 0.263,-2.053 1.239,0.158 4.068,-5.658 0.567,-4.436 -1.332,-0.17 0.26,-2.034 4.958,0.632 -0.26,2.035 -1.296,-0.166 -0.58,4.548 2.475,6.381 z" />
          </g>
          <g
             transform="translate(146.7788,29.9209)"
             id="g4755">
            <path
               inkscape:connector-curvature="0"
               id="path4757"
               style="fill:#ffffff;fill-opacity:1;fill-rule:nonzero;stroke:none"
               d="m 0,0 -0.034,4.134 -11.392,-0.091 0.034,-4.137 2.182,0.018 -0.019,2.066 2.332,0.02 0.087,-10.601 -1.362,-0.012 0.017,-2.049 5.109,0.042 -0.017,2.049 -1.38,-0.01 -0.086,10.599 2.331,0.02 0.016,-2.068 z" />
          </g>
          <g
             transform="translate(132.3472,19.4893)"
             id="g4759">
            <path
               inkscape:connector-curvature="0"
               id="path4761"
               style="fill:#ffffff;fill-opacity:1;fill-rule:nonzero;stroke:none"
               d="m 0,0 0.179,2.043 -1.262,0.11 0.923,10.559 1.263,-0.108 0.181,2.061 -4.848,0.423 L -3.745,13.026 -2.5,12.918 -3.423,2.359 -4.668,2.468 -4.848,0.424 Z" />
          </g>
          <g
             transform="translate(124.0205,22.9072)"
             id="g4763">
            <path
               inkscape:connector-curvature="0"
               id="path4765"
               style="fill:#ffffff;fill-opacity:1;fill-rule:nonzero;stroke:none"
               d="M 0,0 0.59,3.151 C 0.895,4.784 0.108,5.954 -1.413,6.24 L -4.401,6.798 C -5.024,6.914 -5.205,7.366 -5.058,8.15 l 0.315,1.683 c 0.149,0.804 0.474,1.122 1.097,1.006 L -0.657,10.281 -1.003,8.433 1.269,8.008 1.995,11.891 -3.943,13 c -1.521,0.285 -2.699,-0.538 -3.004,-2.167 L -7.498,7.888 C -7.802,6.257 -7,5.064 -5.479,4.78 L -2.51,4.225 C -1.887,4.108 -1.702,3.676 -1.853,2.869 L -2.199,1.018 C -2.346,0.23 -2.679,-0.125 -3.302,-0.009 l -3.262,0.61 0.418,2.236 -2.364,0.442 -0.795,-4.252 6.323,-1.181 C -1.461,-2.44 -0.301,-1.613 0,0" />
          </g>
          <g
             transform="translate(111.4321,32.6377)"
             id="g4767">
            <path
               inkscape:connector-curvature="0"
               id="path4769"
               style="fill:#ffffff;fill-opacity:1;fill-rule:nonzero;stroke:none"
               d="m 0,0 c -0.227,-0.767 -0.588,-1.069 -1.196,-0.888 l -2.896,0.856 1.197,4.05 2.897,-0.856 C 0.61,2.981 0.754,2.551 0.522,1.766 Z m 0.794,-10.266 0.582,1.967 -1.216,0.36 0.804,2.718 c 0.454,1.538 0.189,2.412 -1.166,3.222 1.34,-0.202 2.128,0.227 2.471,1.386 l 0.67,2.268 c 0.47,1.587 -0.187,2.851 -1.671,3.29 l -7.026,2.079 -0.587,-1.985 1.197,-0.354 -3.006,-10.164 -1.198,0.354 -0.582,-1.969 3.452,-1.02 1.834,6.205 2.95,-0.873 c 0.626,-0.185 0.724,-0.642 0.497,-1.409 l -1.491,-5.043 z" />
          </g>
          <g
             transform="translate(98.0146,26.7256)"
             id="g4771">
            <path
               inkscape:connector-curvature="0"
               id="path4773"
               style="fill:#ffffff;fill-opacity:1;fill-rule:nonzero;stroke:none"
               d="m 0,0 1.848,4.3 -1.919,0.825 -1.038,-2.416 -4.162,1.789 1.804,4.197 4.316,-1.855 0.78,1.815 -4.316,1.856 1.6,3.724 L 2.939,12.508 1.956,10.216 3.84,9.408 5.641,13.6 -3.576,17.559 -4.392,15.657 -3.245,15.163 -7.43,5.424 -8.578,5.918 -9.388,4.033 Z" />
          </g>
          <g
             transform="translate(91.7686,43.1768)"
             id="g4775">
            <path
               inkscape:connector-curvature="0"
               id="path4777"
               style="fill:#ffffff;fill-opacity:1;fill-rule:nonzero;stroke:none"
               d="m 0,0 1.027,1.797 -2.736,1.562 -8.378,-8.798 3.311,11.694 -2.719,1.555 -1.027,-1.799 1.085,-0.619 -3.347,-12.659 2.477,-1.415 9.223,9.301 z" />
          </g>
          <g
             transform="translate(72.2549,40.1113)"
             id="g4779">
            <path
               inkscape:connector-curvature="0"
               id="path4781"
               style="fill:#ffffff;fill-opacity:1;fill-rule:nonzero;stroke:none"
               d="M 0,0 1.194,1.667 0.165,2.406 6.338,11.021 7.369,10.284 8.574,11.967 4.619,14.802 3.413,13.117 4.429,12.39 -1.745,3.774 -2.761,4.502 -3.956,2.835 Z" />
          </g>
          <g
             transform="translate(73.9067,54.4668)"
             id="g4783">
            <path
               inkscape:connector-curvature="0"
               id="path4785"
               style="fill:#ffffff;fill-opacity:1;fill-rule:nonzero;stroke:none"
               d="m 0,0 1.357,1.563 -2.59,2.25 -5.693,-6.556 c -0.416,-0.479 -0.863,-1.078 -1.325,-1.808 l 2.95,11.896 -2.801,2.432 -1.357,-1.561 0.942,-0.818 -6.95,-8.003 -0.944,0.819 -1.344,-1.549 2.589,-2.25 5.682,6.542 c 0.416,0.479 0.875,1.092 1.352,1.839 l -2.796,-12.061 1.689,-1.466 8.296,9.55 z" />
          </g>
          <g
             transform="translate(62.9604,64.0977)"
             id="g4787">
            <path
               inkscape:connector-curvature="0"
               id="path4789"
               style="fill:#ffffff;fill-opacity:1;fill-rule:nonzero;stroke:none"
               d="m 0,0 1.554,1.368 -2.281,2.587 -8.598,-7.573 c -0.601,-0.529 -1.081,-0.604 -1.501,-0.129 l -1.946,2.212 c -0.42,0.475 -0.273,0.928 0.329,1.457 l 8.598,7.573 -2.391,2.715 -1.553,-1.368 0.838,-0.95 -7.144,-6.291 c -1.44,-1.271 -1.561,-2.967 -0.377,-4.31 l 2.157,-2.45 c 1.194,-1.357 2.893,-1.45 4.334,-0.181 l 7.143,6.291 z" />
          </g>
          <g
             transform="translate(49.7495,80.4043)"
             id="g4791">
            <path
               inkscape:connector-curvature="0"
               id="path4793"
               style="fill:#ffffff;fill-opacity:1;fill-rule:nonzero;stroke:none"
               d="M 0,0 1.79,1.04 0.067,4.007 -7.44,-0.354 c -0.549,-0.321 -1.165,-0.744 -1.839,-1.285 l 6.639,10.306 -1.863,3.206 -1.79,-1.038 0.627,-1.08 -9.166,-5.325 -0.626,1.08 -1.774,-1.031 1.723,-2.966 7.491,4.351 c 0.549,0.321 1.182,0.753 1.874,1.305 l -6.546,-10.509 1.124,-1.935 10.94,6.355 z" />
          </g>
          <g
             transform="translate(31.1655,87.2461)"
             id="g4795">
            <path
               inkscape:connector-curvature="0"
               id="path4797"
               style="fill:#ffffff;fill-opacity:1;fill-rule:nonzero;stroke:none"
               d="M 0,0 1.886,0.804 1.434,1.869 11.778,9.908 10.447,13.029 -2.524,11.147 -2.962,12.176 -4.85,11.372 -3.724,8.729 0.979,9.539 2.566,5.818 -1.258,2.951 Z m 4.185,7.015 -1.208,2.829 6.526,1.08 z" />
          </g>
          <g
             transform="translate(37.8472,104.1768)"
             id="g4799">
            <path
               inkscape:connector-curvature="0"
               id="path4801"
               style="fill:#ffffff;fill-opacity:1;fill-rule:nonzero;stroke:none"
               d="M 0,0 1.986,0.58 1.026,3.874 -7.311,1.44 C -7.919,1.264 -8.619,1.001 -9.403,0.635 l 8.918,8.411 -1.038,3.561 -1.987,-0.579 0.349,-1.2 -10.175,-2.969 -0.35,1.199 -1.969,-0.576 0.961,-3.292 8.317,2.427 c 0.608,0.178 1.327,0.446 2.131,0.816 l -8.875,-8.63 0.626,-2.148 12.144,3.544 z" />
          </g>
          <g
             transform="translate(21.3359,116.5342)"
             id="g4803">
            <path
               inkscape:connector-curvature="0"
               id="path4805"
               style="fill:#ffffff;fill-opacity:1;fill-rule:nonzero;stroke:none"
               d="M 0,0 4.527,0.717 4.168,2.981 1.667,2.586 0.918,7.318 12.639,2.266 l 1.86,0.293 -1.504,9.503 -4.491,-0.71 0.363,-2.286 2.446,0.388 0.71,-4.493 -11.689,5.097 -1.878,-0.297 z" />
          </g>
          <g
             transform="translate(22.0142,130.0137)"
             id="g4807">
            <path
               inkscape:connector-curvature="0"
               id="path4809"
               style="fill:#ffffff;fill-opacity:1;fill-rule:nonzero;stroke:none"
               d="m 0,0 9.357,0.461 c 1.659,0.08 2.633,1.138 2.558,2.683 L 11.709,7.315 C 11.633,8.861 10.561,9.816 8.903,9.735 L -0.456,9.276 C -2.095,9.195 -3.069,8.139 -2.993,6.594 L -2.789,2.421 C -2.713,0.876 -1.639,-0.08 0,0 m 0.479,2.396 c -0.8,-0.04 -1.222,0.181 -1.252,0.816 l -0.138,2.793 c -0.03,0.633 0.366,0.914 1.166,0.954 L 8.444,7.36 C 9.26,7.4 9.646,7.158 9.676,6.525 L 9.813,3.732 C 9.845,3.098 9.484,2.839 8.667,2.797 Z" />
          </g>
          <g
             transform="translate(28.3276,142.4497)"
             id="g4811">
            <path
               inkscape:connector-curvature="0"
               id="path4813"
               style="fill:#ffffff;fill-opacity:1;fill-rule:nonzero;stroke:none"
               d="m 0,0 2.524,-0.195 c 1.652,-0.127 2.751,0.779 2.87,2.322 L 5.957,9.434 3.893,9.593 3.797,8.347 -6.772,9.161 -6.676,10.408 -8.721,10.564 -9.103,5.601 -7.059,5.443 -6.952,6.819 -2.546,6.48 -2.804,3.133 C -2.939,1.367 -1.893,0.146 0,0 M 0.292,2.334 C -0.505,2.395 -0.875,2.686 -0.826,3.318 L -0.594,6.329 3.616,6.005 3.384,2.993 C 3.336,2.361 2.945,2.129 2.129,2.192 Z" />
          </g>
          <g
             transform="translate(180.6543,28.8936)"
             id="g4815">
            <path
               inkscape:connector-curvature="0"
               id="path4817"
               style="fill:#ffffff;fill-opacity:1;fill-rule:nonzero;stroke:none"
               d="m 0,0 -2.942,8.894 c -0.522,1.577 -1.8,2.233 -3.269,1.747 L -10.177,9.33 c -1.469,-0.486 -2.102,-1.775 -1.581,-3.351 l 2.943,-8.896 c 0.514,-1.559 1.793,-2.216 3.262,-1.729 l 3.965,1.312 C -0.118,-2.848 0.515,-1.559 0,0 m -2.436,-0.177 c 0.252,-0.762 0.151,-1.227 -0.45,-1.427 l -2.656,-0.878 c -0.602,-0.199 -0.979,0.108 -1.23,0.869 l -2.575,7.784 c -0.257,0.775 -0.127,1.212 0.476,1.41 l 2.655,0.878 c 0.602,0.2 0.949,-0.078 1.206,-0.854 z" />
          </g>
          <g
             transform="translate(222.3843,96.4463)"
             id="g4819">
            <path
               inkscape:connector-curvature="0"
               id="path4821"
               style="fill:#ffffff;fill-opacity:1;fill-rule:evenodd;stroke:none"
               d="M 0,0 -13.816,4.488 -14.838,4.82 -15.389,3.905 C -18.69,-1.549 -22.674,-6.6 -27.224,-11.113 l -0.825,-0.818 0.685,-0.935 8.383,-11.543 c -6.578,-6.05 -13.941,-11.1 -21.932,-15.032 l -8.522,11.73 -0.637,0.878 -0.992,-0.433 c -5.535,-2.402 -11.385,-4.155 -17.381,-5.207 l -1.117,-0.196 v -1.135 -14.346 c -4.123,-0.551 -8.296,-0.844 -12.437,-0.844 -4.716,0 -9.465,0.377 -14.139,1.092 v 14.403 1.108 l -1.088,0.216 c -5.817,1.156 -11.525,2.998 -16.97,5.48 l -1.005,0.457 -0.647,-0.894 -8.486,-11.681 c -7.926,4.052 -15.212,9.209 -21.695,15.354 l 8.42,11.59 0.669,0.922 -0.793,0.815 c -4.28,4.397 -8.026,9.277 -11.136,14.494 l -0.554,0.928 -1.027,-0.333 -13.804,-4.486 c -4.189,7.874 -7.205,16.279 -8.981,25.028 l 13.57,4.406 1.104,0.357 -0.187,1.144 c -0.7,4.247 -1.056,8.527 -1.056,12.721 0,2.042 0.1,4.202 0.303,6.603 l 0.086,1.068 -1.017,0.33 -13.837,4.497 c 1.186,8.845 3.633,17.435 7.283,25.576 l 13.549,-4.402 1.113,-0.361 0.517,1.048 c 3.041,6.166 6.904,11.922 11.483,17.106 l 0.717,0.813 -0.636,0.874 -8.525,11.736 c 6.219,6.402 13.291,11.857 21.052,16.237 l 8.393,-11.549 0.68,-0.939 1.032,0.53 c 6.468,3.335 13.325,5.737 20.385,7.137 l 1.088,0.215 v 1.108 14.407 c 4.686,0.711 9.433,1.09 14.139,1.09 4.145,0 8.321,-0.294 12.437,-0.844 v -14.348 -1.134 l 1.115,-0.196 c 7.269,-1.279 14.28,-3.57 20.842,-6.809 l 1.021,-0.505 0.67,0.923 8.418,11.586 c 7.818,-4.265 14.967,-9.611 21.285,-15.918 l -8.478,-11.667 -0.648,-0.894 0.744,-0.813 c 4.836,-5.281 8.928,-11.229 12.165,-17.681 l 0.521,-1.038 1.104,0.358 13.573,4.412 c 3.7,-8.129 6.2,-16.704 7.43,-25.528 l -13.808,-4.487 -1.03,-0.332 0.1,-1.077 c 0.228,-2.493 0.341,-4.827 0.341,-7.132 0,-4.356 -0.387,-8.811 -1.144,-13.232 L -5.539,29.741 -4.426,29.38 9.13,24.979 C 7.305,16.245 4.237,7.856 0,0 m -2.504,31.596 c 0.659,4.193 1.008,8.399 1.008,12.531 0,2.051 -0.091,4.126 -0.265,6.304 l 13.882,4.506 1.067,0.348 -0.143,1.109 C 11.783,66.28 8.986,75.878 4.729,84.919 L 4.22,85.997 3.088,85.628 -10.553,81.194 c -3.091,5.946 -6.887,11.462 -11.313,16.433 l 8.52,11.731 0.67,0.923 -0.796,0.815 c -6.978,7.14 -14.98,13.124 -23.784,17.782 l -1.035,0.546 -0.689,-0.947 -8.465,-11.647 c -6.151,2.928 -12.673,5.059 -19.415,6.343 v 14.421 1.167 l -1.154,0.169 c -4.617,0.677 -9.323,1.023 -13.985,1.023 -5.229,0 -10.516,-0.435 -15.71,-1.289 l -1.13,-0.186 v -1.149 -14.485 c -6.549,-1.395 -12.915,-3.623 -18.968,-6.633 l -8.436,11.61 -0.7,0.962 -1.042,-0.571 c -8.742,-4.792 -16.657,-10.892 -23.531,-18.136 l -0.771,-0.815 0.658,-0.907 8.575,-11.8 c -4.172,-4.851 -7.743,-10.167 -10.639,-15.83 l -13.617,4.424 -1.14,0.369 -0.503,-1.086 c -4.202,-9.054 -6.947,-18.668 -8.155,-28.575 l -0.134,-1.105 1.056,-0.345 13.909,-4.52 c -0.15,-2.053 -0.228,-3.954 -0.228,-5.759 0,-3.96 0.32,-7.993 0.925,-12.006 l -13.641,-4.432 -1.134,-0.365 0.223,-1.17 c 1.86,-9.809 5.233,-19.217 10.024,-27.968 l 0.538,-0.983 1.063,0.347 13.883,4.512 c 2.907,-4.734 6.321,-9.18 10.171,-13.251 l -8.462,-11.647 -0.689,-0.947 0.839,-0.816 c 7.168,-6.961 15.323,-12.737 24.238,-17.157 l 1.024,-0.509 0.67,0.922 8.53,11.743 c 4.987,-2.186 10.178,-3.863 15.464,-4.991 v -14.481 -1.147 l 1.13,-0.189 c 5.182,-0.854 10.469,-1.287 15.71,-1.287 4.658,0 9.362,0.342 13.982,1.018 l 1.157,0.17 v 1.166 14.422 c 5.453,1.037 10.782,2.634 15.869,4.758 l 8.569,-11.795 0.661,-0.907 1.014,0.484 c 8.985,4.29 17.227,9.942 24.496,16.804 l 0.864,0.813 -0.697,0.96 -8.427,11.599 c 4.117,4.201 7.764,8.833 10.861,13.8 l 13.895,-4.516 1.06,-0.345 0.539,0.974 c 4.844,8.729 8.272,18.122 10.187,27.916 l 0.231,1.174 -1.138,0.37 z" />
          </g>
          <g
             transform="translate(159.0732,191.5454)"
             id="g4823">
            <path
               inkscape:connector-curvature="0"
               id="path4825"
               style="fill:#ffffff;fill-opacity:1;fill-rule:evenodd;stroke:none"
               d="m 0,0 c -2.207,-0.497 -3.965,0.341 -4.649,1.231 -0.685,0.89 0.203,3.626 0.957,3.487 0.753,-0.136 0.068,-0.616 -0.138,-1.845 -0.203,-1.231 0.547,-1.574 0.547,-1.574 7.044,5.334 1.572,6.977 1.572,6.977 1.915,2.254 0.823,5.605 0.823,5.605 C -5.264,12.446 -5.334,8.958 -5.334,8.958 -6.359,10.599 -9.16,9.573 -9.846,8 -10.53,6.429 -10.391,2.052 -10.391,2.052 c 2.803,-0.616 2.185,3.076 3.211,3.215 1.026,0.136 1.642,-3.42 -3.143,-4.309 -4.789,-0.888 -6.02,1.846 -6.566,3.351 -0.546,1.503 1.231,2.805 1.641,0.753 0.41,-2.053 2.05,-2.805 2.05,-2.805 -0.613,1.503 1.849,3.83 1.642,6.428 -0.203,2.599 -4.648,1.229 -4.648,1.229 0.562,1.285 0.35,2.61 -0.139,3.767 -0.289,0.686 -0.666,1.311 -1.034,1.834 v 2.501 h 2.009 v 2.631 h -2.009 v 1.545 h -2.633 v -1.545 h -2.008 v -2.631 h 2.008 v -2.598 c -0.345,-0.505 -0.698,-1.09 -0.97,-1.737 -0.486,-1.157 -0.699,-2.482 -0.136,-3.767 0,0 -4.444,1.37 -4.651,-1.229 -0.202,-2.598 2.258,-4.925 1.643,-6.428 0,0 1.643,0.752 2.052,2.805 0.409,2.052 2.186,0.75 1.64,-0.753 -0.548,-1.505 -1.777,-4.239 -6.563,-3.351 -4.786,0.889 -4.17,4.445 -3.143,4.309 1.024,-0.139 0.409,-3.831 3.214,-3.215 0,0 0.132,4.377 -0.55,5.948 -0.683,1.573 -3.488,2.599 -4.514,0.958 0,0 -0.066,3.488 -4.443,4.923 0,0 -1.093,-3.351 0.819,-5.605 0,0 -5.469,-1.643 1.574,-6.977 0,0 0.753,0.343 0.547,1.574 -0.205,1.229 -0.888,1.709 -0.135,1.845 0.751,0.139 1.638,-2.597 0.956,-3.487 -0.682,-0.89 -2.442,-1.728 -4.651,-1.231 -4.87,1.094 -1.249,8.821 -7.657,9.573 0,0 3.407,-8.253 7.5,-13.198 H 0.159 C 4.25,1.32 7.659,9.573 7.659,9.573 1.251,8.821 4.871,1.094 0,0" />
          </g>
          <g
             transform="translate(143.3105,172.4834)"
             id="g4827">
            <path
               inkscape:connector-curvature="0"
               id="path4829"
               style="fill:#ffffff;fill-opacity:1;fill-rule:evenodd;stroke:none"
               d="M 0,0 0.41,-0.236 1.141,1.018 0.274,1.526 0.785,2.39 -0.459,3.115 -0.966,2.257 -1.832,2.767 -2.57,1.52 -2.399,1.415 C -1.544,1.296 -0.584,0.775 0,0 m 1.02,-23.676 v 0 c 0,0 10e-4,-0.003 10e-4,-0.006 z m 9.899,17.349 c -0.755,0.089 -1.991,0.445 -2.337,0.988 0.272,0.586 0.66,1.725 0.66,3.049 0,0.73 -0.119,1.502 -0.474,2.239 C 8.489,0.74 7.942,1.313 7.181,1.625 6.624,1.938 6.013,2.1 5.369,2.1 3.284,2.1 1.59,0.396 1.59,-1.681 1.59,-3.076 2.378,-4.327 3.596,-4.986 3.592,-5.007 3.592,-5.007 3.585,-5.022 3.275,-5.048 2.218,-5.134 2.218,-5.134 L 2.152,-5.346 C 2.144,-5.379 2.099,-5.523 2.099,-5.72 2.099,-5.908 2.139,-6.13 2.27,-6.353 2.347,-6.469 2.487,-6.591 2.676,-6.692 2.608,-6.782 2.604,-6.813 2.564,-6.878 2.298,-6.88 1.056,-6.947 1.056,-6.947 L 1.037,-7.233 v -0.105 c 0,-0.304 0.088,-0.717 0.386,-0.996 C 1.378,-8.399 1.355,-8.42 1.315,-8.462 H 0.223 c -0.004,0.008 -0.521,0.105 -0.76,0.139 -0.144,0.172 -1.06,1.283 -1.161,1.404 -0.256,0.96 -0.352,1.704 -0.352,2.233 0,1.132 0.393,1.431 0.393,1.441 0.969,0.374 1.194,0.733 1.229,0.955 0.144,0.289 0.24,0.59 0.24,0.87 0,0.232 -0.061,0.47 -0.167,0.698 -0.087,0.202 -0.212,0.38 -0.369,0.541 v 0.011 c -0.57,0.594 -1.409,0.951 -1.986,0.953 -0.238,0 -0.546,-0.043 -0.618,-0.304 -0.051,-0.145 -0.185,-0.242 -0.348,-0.223 -0.15,0.009 -0.282,0.128 -0.299,0.288 -0.006,0.031 -0.078,0.538 -0.514,1.062 -0.065,0.049 -0.115,0.116 -0.189,0.151 -0.756,0.4 -1.77,0.312 -2.532,-0.21 -0.81,-0.558 -1.191,-1.51 -1.066,-2.623 l 0.08,-0.664 0.485,0.48 c 0.623,0.629 2.111,-0.494 2.716,-1.03 -0.028,-0.283 -0.19,-3.205 -0.192,-3.42 -0.952,-0.966 -1.976,-2.244 -2.267,-2.613 -0.184,-0.028 -0.81,-0.143 -0.81,-0.143 0,0 -0.806,0.004 -1.041,0.004 -0.049,0.042 -0.058,0.063 -0.11,0.128 0.299,0.279 0.389,0.692 0.389,0.996 0,0.044 0,0.076 -0.004,0.105 l -0.022,0.286 c 0,0 -1.231,0.067 -1.496,0.069 -0.041,0.065 -0.065,0.096 -0.116,0.186 0.19,0.101 0.334,0.223 0.406,0.339 0.128,0.223 0.168,0.445 0.168,0.633 0,0.197 -0.043,0.341 -0.052,0.374 l -0.059,0.212 c 0,0 -1.058,0.086 -1.375,0.112 -0.005,0.015 -0.005,0.015 -0.014,0.036 1.225,0.659 2.015,1.91 2.015,3.305 0,2.077 -1.691,3.781 -3.79,3.781 -0.632,0 -1.253,-0.162 -1.832,-0.494 -0.739,-0.293 -1.276,-0.866 -1.589,-1.697 -0.328,-0.708 -0.452,-1.477 -0.452,-2.195 0,-1.316 0.395,-2.467 0.671,-3.053 -0.347,-0.543 -1.591,-0.899 -2.342,-0.988 l -0.366,-0.048 0.089,-0.37 c 0.345,-1.414 1.508,-1.93 3.354,-1.498 0.293,0.078 0.577,0.242 0.843,0.464 0.149,-0.21 0.265,-0.372 0.344,-0.471 -0.024,-0.226 -0.305,-3.128 -0.305,-3.128 -0.099,-0.683 -1.694,-1.101 -2.457,-1.203 l -0.367,-0.045 0.083,-0.354 c 0.357,-1.43 1.531,-1.945 3.358,-1.512 1.03,0.249 1.79,1.31 2.29,3.072 0.043,-0.059 0.071,-0.083 0.099,-0.118 -0.056,-0.648 -0.338,-4.241 -0.482,-5.267 -0.094,-0.683 -1.701,-1.11 -2.457,-1.209 l -0.372,-0.042 0.093,-0.362 c 0.356,-1.415 1.505,-1.941 3.351,-1.497 2.068,0.489 2.637,4.086 2.781,5.514 v -4.334 c 0,0 0.36,-0.052 0.425,-0.057 0,-0.037 -0.006,-0.063 -0.006,-0.105 0,-0.071 0.006,-0.15 0.012,-0.229 -0.552,-1.197 -1.209,-2.67 -1.513,-3.33 -1.983,0.312 -3.728,-0.724 -3.806,-0.778 l 0.747,-1.233 c 0.009,0.007 0.611,0.357 1.429,0.536 -0.473,-0.463 -0.902,-1.003 -1.059,-1.57 l 1.39,-0.384 c 0.174,0.61 1.321,1.533 2.092,1.974 0.062,0.052 0.129,0.097 0.177,0.161 0.383,0.102 1.548,0.143 2.644,0.105 l 0.066,1.451 c -0.838,0.031 -1.479,0.016 -1.969,-0.004 l 1.196,2.649 c 0.017,0.016 0.05,0.03 0.068,0.039 0.154,-0.093 0.491,-0.291 0.491,-0.291 0,0 0.802,0.291 1.102,0.406 0.094,-0.195 0.24,-0.644 0.24,-1.704 0,-0.489 -0.037,-1.103 -0.115,-1.875 -0.096,-0.897 -0.438,-1.563 -1.013,-1.996 -1.175,-0.828 -2.942,-0.448 -2.959,-0.442 l -0.641,0.123 0.264,-0.586 c 0.527,-1.222 1.27,-1.946 2.166,-2.125 0.847,-0.161 1.635,0.167 2.183,0.512 -0.015,-0.178 -0.039,-0.351 -0.039,-0.515 0,-1.735 1.147,-3.049 1.208,-3.114 l 0.241,-0.276 0.238,0.272 c 0.071,0.065 1.241,1.392 1.241,3.138 0,0.152 -0.019,0.328 -0.051,0.497 0.559,-0.347 1.352,-0.675 2.195,-0.514 0.905,0.179 1.628,0.903 2.17,2.125 l 0.25,0.586 -0.628,-0.123 c -0.012,-0.006 -1.784,-0.386 -2.952,0.442 -0.582,0.433 -0.938,1.099 -1.024,1.996 -0.077,0.772 -0.114,1.386 -0.114,1.875 0,1.06 0.148,1.509 0.235,1.704 0.307,-0.115 1.109,-0.406 1.109,-0.406 0,0 0.189,0.113 0.347,0.208 l 1.264,-2.601 c -0.491,0.016 -1.118,0.031 -1.922,0 l 0.055,-1.451 c 1.152,0.041 2.381,-0.007 2.702,-0.114 0.038,-0.055 0.074,-0.112 0.123,-0.152 0.767,-0.441 1.925,-1.364 2.091,-1.974 l 1.402,0.384 c -0.16,0.567 -0.591,1.107 -1.067,1.57 0.81,-0.179 1.41,-0.529 1.425,-0.536 l 0.751,1.233 c -0.084,0.062 -1.836,1.096 -3.828,0.774 -0.289,0.594 -0.916,1.88 -1.468,3.02 0.07,0.164 0.09,0.35 0.09,0.543 v 0.105 c 0.051,0.005 0.412,0.057 0.412,0.057 v 4.334 c 0.159,-1.428 0.723,-5.025 2.79,-5.514 1.829,-0.444 2.984,0.082 3.354,1.497 l 0.088,0.362 -0.377,0.042 c -0.756,0.099 -2.354,0.526 -2.455,1.209 -0.142,1.026 -0.418,4.619 -0.481,5.267 0.025,0.035 0.065,0.059 0.095,0.118 0.511,-1.762 1.27,-2.823 2.285,-3.072 1.843,-0.433 3.005,0.082 3.366,1.512 l 0.09,0.354 -0.369,0.045 c -0.763,0.102 -2.358,0.52 -2.462,1.203 0,0 -0.243,2.552 -0.3,3.128 0.067,0.099 0.196,0.261 0.345,0.471 0.267,-0.222 0.542,-0.386 0.841,-0.464 1.844,-0.432 2.996,0.084 3.354,1.498 l 0.096,0.37 z" />
          </g>
          <g
             transform="translate(113.2324,159.4185)"
             id="g4831">
            <path
               inkscape:connector-curvature="0"
               id="path4833"
               style="fill:#ffffff;fill-opacity:1;fill-rule:evenodd;stroke:none"
               d="m 0,0 c 0.469,0.796 0.91,1.817 0.914,2.14 0,1.082 -0.971,1.949 -2.162,1.949 -1.201,0 -2.17,-0.867 -2.17,-1.949 h -2.628 c 0,2.522 2.143,4.572 4.798,4.572 2.646,0 4.796,-2.05 4.796,-4.572 0,-1.235 -0.986,-2.991 -1.29,-3.496 z m 1.671,-10.434 1.082,1.488 5.229,-4.094 -2.159,5.55 -4.017,0.99 c 2.87,1.287 4.888,4.164 4.888,7.516 0,4.547 -3.688,8.228 -8.233,8.228 -4.537,0 -8.229,-3.681 -8.229,-8.228 0,-3.352 2.011,-6.229 4.891,-7.516 l -1.494,0.216 -0.488,-0.655 3.967,-3.121 1.262,1.464 1.099,-0.929 -0.676,-0.785 2.664,-0.679 -0.077,-2.096 c 0.823,-0.114 1.467,-0.811 1.467,-1.665 0,-0.917 -0.759,-1.686 -1.698,-1.686 -0.643,0 -1.206,0.387 -1.494,0.939 -0.845,-0.474 -2.424,-1.364 -2.424,-1.364 -0.009,0 -4.527,-3.184 -5.186,-3.652 l -0.182,-2.485 -1.029,-12.944 H 6.321 l 0.348,11.639 0.109,4.068 -3.309,3.814 z m -5.207,-5.204 c 0,0 2.521,1.426 2.839,1.606 0.138,0.24 0.526,0.931 0.64,1.141 0,0.163 0.01,0.419 0.024,0.786 -0.551,0.143 -1.204,0.301 -1.716,0.438 -0.412,-0.67 -1.884,-3.083 -1.884,-3.083 l -3.834,-0.806 -0.294,1.425 c 0,0 0.848,0.173 1.696,0.347 l -0.027,0.022 1.343,1.552 -3.761,3.097 -2.845,-3.749 3.207,-6.021 c 1.44,1.024 4.56,3.223 4.612,3.245 m -3.386,8.722 -5.785,4.666 -2.612,0.397 1.104,-2.506 5.651,-4.724 z m 8.32,-7.834 c 0,0.139 -0.11,0.247 -0.249,0.247 -0.125,0 -0.232,-0.108 -0.232,-0.247 0,-0.121 0.107,-0.228 0.232,-0.228 0.139,0 0.249,0.107 0.249,0.228 m 2.059,3.414 c 0.581,-1.913 1.251,-4.184 1.308,-4.372 0.146,-0.158 1.871,-2.151 2.816,-3.253 l 0.778,0.166 0.271,3.408 c -0.445,0.345 -3.336,2.609 -5.173,4.051" />
          </g>
          <g
             transform="translate(160.1953,153.1655)"
             id="g4835">
            <path
               inkscape:connector-curvature="0"
               id="path4837"
               style="fill:#ffffff;fill-opacity:1;fill-rule:evenodd;stroke:none"
               d="m 0,0 -0.124,0.756 c -0.489,0.858 -1.812,3.218 -2.725,4.871 v -7.475 l -1.798,-4.6 0.186,-4.223 2.92,-0.302 c 0.448,3.037 1.257,8.572 1.257,8.553 0,0 0.189,1.613 0.284,2.42 m 6.863,12.965 c 2.644,0 4.802,-2.05 4.802,-4.572 0,-1.235 -0.988,-2.991 -1.295,-3.497 L 8.106,6.253 c 0.48,0.796 0.921,1.817 0.923,2.14 0,1.082 -0.972,1.949 -2.166,1.949 -1.19,0 -2.166,-0.867 -2.166,-1.949 H 2.06 c 0,2.522 2.156,4.572 4.803,4.572 M 1.429,0.927 C 1.463,0.873 1.471,0.791 1.472,0.722 1.522,0.686 1.566,0.662 1.607,0.624 L 4.44,1.4 9.168,1.572 9.315,1.585 11.399,0.749 c 1.983,1.495 3.268,3.85 3.268,6.52 0,4.546 -3.69,8.228 -8.227,8.228 -4.557,0 -8.232,-3.682 -8.232,-8.228 0,-0.22 0.024,-0.424 0.033,-0.636 z m 13.696,-3.494 1.418,-1.37 3.046,3.082 -1.415,1.374 -1.527,0.09 0.826,0.868 -1.109,1.092 -3.764,-4.087 -0.418,0.402 C 11.616,-0.897 9.298,0.025 9.067,0.123 8.786,0.112 4.813,-0.031 4.664,-0.033 4.533,-0.077 2.056,-0.754 1.35,-0.948 1.251,-1.747 1.162,-2.589 1.162,-2.605 l -1.534,-10.303 0.015,-2.498 0.153,-14.479 h 15.578 l -1.266,14.798 -0.27,3.728 -4.137,0.387 -2.905,1.077 0.046,-3.807 -5.274,-0.038 -0.046,5.257 3.845,0.045 -0.852,1.713 2.349,1.493 0.365,0.221 c 0,0 0.578,-0.297 1.272,-0.667 l 4.099,4.16 1.022,-1.021 -3.759,-3.824 c 0.435,-0.222 0.811,-0.41 0.971,-0.493 0.364,0.197 0.972,0.529 0.972,0.529 l 0.692,-1.277 -1.643,-0.893 c 0,0 -2.963,1.519 -3.562,1.824 -0.278,-0.183 -0.519,-0.339 -0.906,-0.577 0.24,-0.483 0.449,-0.892 0.571,-1.159 0.452,-0.16 2.917,-1.076 3.066,-1.12 0.112,-0.016 2.278,-0.227 3.996,-0.388 l 2.195,0.179 -1.608,6.272 -0.976,0.941 1.395,1.44 z M 2.972,-9.914 c 0.013,-0.73 0.029,-1.648 0.036,-2.367 0.719,0.004 1.637,0.013 2.37,0.027 -0.011,0.718 -0.019,1.637 -0.021,2.359 -0.74,-0.006 -1.648,-0.006 -2.385,-0.019" />
          </g>
          <g
             transform="translate(143.5166,86.0928)"
             id="g4839">
            <path
               inkscape:connector-curvature="0"
               id="path4841"
               style="fill:#ffffff;fill-opacity:1;fill-rule:evenodd;stroke:none"
               d="M 0,0 C 0.845,-0.072 2.47,-0.239 3.338,-0.317 3.249,-1.175 3.088,-2.793 3.002,-3.655 2.158,-3.573 0.521,-3.412 -0.331,-3.332 -0.248,-2.479 -0.085,-0.848 0,0 m -8.396,0 c 0.087,-0.848 0.248,-2.479 0.319,-3.332 -0.85,-0.08 -2.474,-0.241 -3.329,-0.323 -0.084,0.862 -0.231,2.48 -0.324,3.334 0.86,0.082 2.481,0.249 3.334,0.321 m 11.334,11.372 -0.984,-0.028 0.771,0.929 -1.122,0.92 -5.804,-7.006 -5.802,7.006 -1.118,-0.92 0.771,-0.929 -1.113,0.032 -0.091,-0.078 -1.431,-1.164 2.766,-3.342 1.527,1.239 0.173,1.105 3.383,-4.079 -2.954,-3.569 -5.219,-0.507 0.597,-6.209 6.224,0.587 -0.505,5.2 2.795,3.368 2.795,-3.37 -0.505,-5.198 6.221,-0.587 0.599,6.209 -5.22,0.505 -2.956,3.569 3.387,4.083 0.174,-1.107 1.515,-1.239 2.775,3.342 -1.518,1.242 z m -7.834,2.552 v -1.008 h -1.006 v -1.44 h 1.006 v -1.01 h 1.446 v 1.01 h 1.005 v 1.44 H -3.45 v 1.008 z" />
          </g>
          <g
             transform="translate(109.4658,111.8096)"
             id="g4843">
            <path
               inkscape:connector-curvature="0"
               id="path4845"
               style="fill:#ffffff;fill-opacity:1;fill-rule:evenodd;stroke:none"
               d="M 0,0 H 2.141 V 3.549 H 9.605 V 9.398 H -5.977 V 3.549 H 0 Z m 57.557,0 h 2.141 v 3.549 h 1.318 4.666 V 9.398 H 50.094 V 3.549 h 7.463 z M 23.02,0 h 2.144 v 3.549 h 9.37 V 0 h 2.149 v 3.549 h 3.094 v 13.898 l 2.817,3.62 v 5.93 H 38.485 V 23.441 H 35.48 v 3.556 h -4.111 v -3.556 h -2.988 v 3.556 h -4.106 v -3.556 h -3.003 v 3.556 h -4.108 v -5.93 l 2.812,-3.62 V 3.549 H 23.02 Z M 10.487,-28.789 c -0.002,0.085 -0.007,0.169 -0.007,0.255 0,3.464 0.841,6.733 2.294,9.596 3.259,6.424 9.672,10.801 17.086,10.801 7.746,0 14.424,-4.818 17.52,-11.77 1.16,-2.622 1.838,-5.542 1.838,-8.627 0,-0.351 -0.008,-0.697 -0.025,-1.04 -5.822,-2.374 -12.073,-3.651 -18.304,-3.651 -7.261,0 -14.199,1.606 -20.402,4.436 M 62.324,0.916 v -3.555 h -7.397 v 3.555 h -4.1 V -2.639 H 43.414 V 0.916 H 39.305 V -2.639 H 31.906 V 0.916 H 27.797 V -2.639 H 20.388 V 0.916 H 16.284 V -2.639 H 8.881 V 0.916 H 4.78 v -3.555 h -7.415 v 3.555 h -5.42 v -4.362 h 2.078 v -13.005 c -6.166,7.229 -9.886,16.226 -9.886,25.849 V 70.844 H 77.646 V 9.398 c 0,-10.267 -4.232,-20.09 -11.964,-27.962 v 15.118 h 2.076 V 0.916 Z M 78.955,73.482 H -18.496 V 9.398 c 0,-24.533 22.613,-45.253 49.385,-45.253 12.454,0 24.959,4.806 34.336,13.211 9.702,8.696 15.056,20.08 15.056,32.042 v 64.084 z" />
          </g>
          <g
             transform="translate(6.5571,140.5737)"
             id="g4847">
            <path
               inkscape:connector-curvature="0"
               id="path4849"
               style="fill:#ffffff;fill-opacity:1;fill-rule:evenodd;stroke:none"
               d="m 0,0 c 0,-73.776 60.023,-133.799 133.799,-133.799 73.778,0 133.8,60.023 133.8,133.799 0,73.777 -60.022,133.799 -133.8,133.799 C 60.023,133.799 0,73.777 0,0 m 2.618,0 c 0,72.333 58.848,131.183 131.181,131.183 72.335,0 131.181,-58.85 131.181,-131.183 0,-72.334 -58.846,-131.179 -131.181,-131.179 C 61.466,-131.179 2.618,-72.334 2.618,0" />
          </g>
        </g>
      </g>
    </g>
  </g>
</svg>
